<svg xmlns="http://www.w3.org/2000/svg" viewBox="0 0 512 512" role="img" aria-labelledby="title desc">
  <title id="title">BattleShipArena icon source</title>
  <desc id="desc">Stylized battleship silhouette over a sea grid.</desc>
  <defs>
    <linearGradient id="sea" x1="0" y1="0" x2="1" y2="1">
      <stop offset="0%" stop-color="#0f766e" />
      <stop offset="100%" stop-color="#155e75" />
    </linearGradient>
    <linearGradient id="sky" x1="0" y1="0" x2="0" y2="1">
      <stop offset="0%" stop-color="#f3efe6" />
      <stop offset="100%" stop-color="#dbeafe" />
    </linearGradient>
  </defs>
  <rect width="512" height="512" rx="96" fill="url(#sky)" />
  <rect x="56" y="248" width="400" height="200" rx="40" fill="url(#sea)" />
  <g stroke="#f8fafc" stroke-width="8" opacity="0.35">
    <path d="M96 272H416" />
    <path d="M96 320H416" />
    <path d="M96 368H416" />
    <path d="M96 416H416" />
    <path d="M144 264V448" />
    <path d="M208 264V448" />
    <path d="M272 264V448" />
    <path d="M336 264V448" />
    <path d="M400 264V448" />
  </g>
  <path d="M112 310L208 230H328L400 286V336H112Z" fill="#111827" />
  <path d="M200 230V184H252L284 230Z" fill="#111827" />
  <rect x="228" y="166" width="16" height="40" rx="8" fill="#111827" />
  <circle cx="164" cy="324" r="18" fill="#f59e0b" />
  <circle cx="236" cy="324" r="18" fill="#f59e0b" />
  <circle cx="308" cy="324" r="18" fill="#f59e0b" />
</svg>
